<svg width="30" height="30" viewBox="0 0 30 30" fill="none" xmlns="http://www.w3.org/2000/svg">
<g clip-path="url(#clip0_360_253)">
<path d="M0 29.287H14.6435V0H0V29.287ZM9.15217 3.66087H12.813V7.32174H9.15217V3.66087ZM9.15217 10.9826H12.813V14.6435H9.15217V10.9826ZM9.15217 18.3043H12.813V21.9652H9.15217V18.3043ZM1.83043 3.66087H5.4913V7.32174H1.83043V3.66087ZM1.83043 10.9826H5.4913V14.6435H1.83043V10.9826ZM1.83043 18.3043H5.4913V21.9652H1.83043V18.3043ZM16.4739 9.15217H29.287V10.9826H16.4739V9.15217ZM16.4739 29.287H20.1348V21.9652H25.6261V29.287H29.287V12.813H16.4739V29.287Z" fill="#0155CB"/>
</g>
<defs>
<clipPath id="clip0_360_253">
<rect width="29.287" height="29.287" fill="white"/>
</clipPath>
</defs>
</svg>
