<svg width="43" height="43" viewBox="0 0 43 43" fill="none" xmlns="http://www.w3.org/2000/svg">
<path d="M21.5 0C9.62591 0 0 9.62591 0 21.5C0 33.3741 9.62591 43 21.5 43C33.3742 43 43 33.3742 43 21.5C43 9.62582 33.3742 0 21.5 0ZM33.665 28.6667C34.0493 26.8547 34.2919 24.9314 34.3708 22.9333H40.0793C39.9299 24.9129 39.4691 26.8353 38.7051 28.6667H33.665ZM9.33503 14.3333C8.95072 16.1453 8.70813 18.0686 8.6292 20.0667H2.92077C3.0702 18.0871 3.53093 16.1647 4.29489 14.3333H9.33503ZM30.7287 14.3333C31.1593 16.1681 31.4184 18.0893 31.5027 20.0667H22.9333V14.3333H30.7287ZM22.9333 11.4667V3.07549C23.5868 3.26567 24.2343 3.58477 24.8696 4.03268C26.0602 4.87208 27.1993 6.16513 28.1636 7.77216C28.8302 8.88308 29.4066 10.12 29.8879 11.4668L22.9333 11.4667ZM14.8364 7.77207C15.8007 6.16504 16.9397 4.8719 18.1304 4.03259C18.7656 3.58468 19.4132 3.26558 20.0667 3.0754V11.4667H13.1121C13.5935 10.12 14.1699 8.88308 14.8364 7.77207ZM20.0667 14.3333V20.0667H11.4974C11.5816 18.0893 11.8408 16.1681 12.2713 14.3333H20.0667ZM4.29498 28.6667C3.53102 26.8353 3.07029 24.9129 2.92086 22.9333H8.62929C8.70822 24.9314 8.95081 26.8547 9.33512 28.6667H4.29498ZM11.4974 22.9333H20.0667V28.6667H12.2713C11.8408 26.832 11.5816 24.9107 11.4974 22.9333ZM20.0667 31.5333V39.9246C19.4132 39.7344 18.7657 39.4152 18.1304 38.9674C16.9397 38.128 15.8006 36.8349 14.8364 35.2279C14.1698 34.1169 13.5935 32.88 13.112 31.5333H20.0667ZM28.1636 35.2279C27.1993 36.8349 26.0602 38.128 24.8696 38.9674C24.2343 39.4152 23.5868 39.7344 22.9333 39.9246V31.5333H29.888C29.4066 32.88 28.8302 34.1169 28.1636 35.2279ZM22.9333 28.6667V22.9333H31.5026C31.4184 24.9107 31.1592 26.832 30.7286 28.6667H22.9333ZM34.3708 20.0667C34.2919 18.0686 34.0493 16.1453 33.665 14.3333H38.7051C39.4691 16.1647 39.9299 18.0871 40.0793 20.0667H34.3708ZM37.2066 11.4667H32.911C32.0762 8.83462 30.9234 6.52642 29.5375 4.68395C31.4428 5.59502 33.1682 6.81675 34.6757 8.32426C35.6379 9.2863 36.4836 10.3371 37.2066 11.4667ZM8.32426 8.32426C9.83186 6.81666 11.5573 5.59502 13.4625 4.68395C12.0766 6.52642 10.9239 8.83462 10.089 11.4667H5.79353C6.51638 10.3371 7.36223 9.2863 8.32426 8.32426ZM5.79353 31.5333H10.089C10.9239 34.1654 12.0766 36.4736 13.4626 38.3161C11.5573 37.4051 9.83186 36.1833 8.32435 34.6757C7.36223 33.7137 6.51638 32.6629 5.79353 31.5333ZM34.6757 34.6757C33.1682 36.1833 31.4427 37.4051 29.5375 38.3161C30.9235 36.4737 32.0762 34.1654 32.911 31.5333H37.2066C36.4836 32.6629 35.6379 33.7137 34.6757 34.6757Z" fill="url(#paint0_linear_306_473)"/>
<defs>
<linearGradient id="paint0_linear_306_473" x1="9.73585" y1="4.86792" x2="73.1464" y2="39.644" gradientUnits="userSpaceOnUse">
<stop stop-color="white" stop-opacity="0.91"/>
<stop offset="0.500081" stop-color="#ABC7F2" stop-opacity="0.72"/>
<stop offset="0.766711" stop-color="#4A75E3" stop-opacity="0.66"/>
<stop offset="1" stop-color="#0030D8" stop-opacity="0.69"/>
</linearGradient>
</defs>
</svg>
