<svg width="191" height="180" viewBox="0 0 191 180" fill="none" xmlns="http://www.w3.org/2000/svg">
<g filter="url(#filter0_d_306_353)">
<path d="M178.935 167C123.29 167 67.6449 167 12 167C12 111.357 12 55.8005 12 0.200724C12.1884 -0.102154 12.3913 0.0276507 12.5796 0.0276507C67.8188 0.0276507 123.072 0.0276507 178.312 0.0276507C178.515 0.0276507 178.703 -0.0588858 178.906 0.157456C179.036 0.676675 178.978 1.28243 178.978 1.88819C178.978 56.4062 178.978 110.924 178.978 165.442C178.993 165.918 179.036 166.481 178.935 167Z" fill="#013F94" fill-opacity="0.93"/>
<path d="M113.747 27.7748C115.137 28.5889 116.351 29.315 117.498 29.997C117.718 30.3271 117.652 30.6351 117.652 30.9431C117.652 32.1532 117.674 33.3634 117.652 34.5735C117.63 35.0795 117.785 35.4316 118.182 35.7836C122.572 39.612 126.962 43.4623 131.352 47.3127C131.639 47.5547 131.97 47.7747 132.212 48.1928C124.359 48.1928 116.549 48.1928 108.673 48.1928C103.114 40.7561 97.5107 33.2974 91.9072 25.8166C91.9293 25.7506 91.9734 25.7066 91.9955 25.6406C98.6137 27.9288 105.254 30.2171 111.939 32.5273C111.939 34.0234 111.939 35.4756 111.939 36.9497C112.468 37.0817 112.931 37.0377 113.483 36.9937C113.681 33.9574 113.681 30.9651 113.747 27.7748Z" fill="white"/>
<path d="M58 60.9712C58.5074 61.2133 58.8163 61.5873 59.2133 61.8513C62.0592 63.8315 65.236 64.8656 68.6333 65.3717C72.9352 66.0317 77.0827 65.3277 81.208 64.2716C86.9659 62.7974 92.6135 60.9492 98.3493 59.3651C102.519 58.221 106.71 57.1649 110.99 56.5488C114.961 55.9768 118.91 55.8668 122.771 57.1429C127.823 58.815 131.176 62.1154 132.478 67.3519C132.5 67.4839 132.588 67.6159 132.5 67.7479C132.257 67.8139 132.169 67.5939 132.058 67.4619C128.815 64.2716 124.889 62.4234 120.432 61.6313C116.285 60.8832 112.204 61.4333 108.144 62.3354C103.622 63.3475 99.2097 64.6896 94.7534 65.9877C90.1868 67.3299 85.6202 68.672 80.9433 69.6181C77.7445 70.2561 74.5236 70.6962 71.2586 70.5642C68.4348 70.4322 65.7434 69.8821 63.2946 68.408C60.5591 66.7798 58.7721 64.4476 58.0221 61.3453C58 61.2353 58 61.1693 58 60.9712Z" fill="white"/>
<path d="M132.521 72.7659C132.234 72.8759 132.102 72.7219 131.925 72.6339C128.307 70.9397 124.513 69.8176 120.542 69.3996C117.475 69.0916 114.431 69.3556 111.408 69.9056C105.937 70.8957 100.709 72.6779 95.4364 74.3721C91.4875 75.6482 87.5165 76.9243 83.4573 77.8044C79.9717 78.5525 76.464 79.0585 72.8902 78.8825C69.912 78.7505 67.022 78.2224 64.4188 76.6823C61.1097 74.7461 59.2786 71.8198 58.6388 68.0795C58.5947 67.8374 58.5506 67.5954 58.683 67.2874C59.1242 67.8814 59.4551 68.5195 59.9184 69.0256C61.4847 70.7417 63.4261 71.8418 65.588 72.5899C69.9781 74.152 74.4565 74.3941 79.0231 73.492C83.2588 72.6339 87.4062 71.4018 91.5316 70.1037C96.9586 68.3875 102.364 66.5173 107.923 65.2412C110.482 64.6471 113.041 64.0971 115.688 64.1851C120.696 64.3171 125.395 65.5052 129.432 68.6295C130.932 69.8396 132.08 71.3798 132.521 72.7659Z" fill="white"/>
<path d="M88.0015 25C93.6491 32.7667 99.2084 40.4235 104.878 48.2122C102.848 48.2122 100.951 48.2122 98.9658 48.2122C95.2154 43.0857 91.3989 37.9152 87.5382 32.6567C86.8764 33.4048 86.2808 34.1089 85.6631 34.8129C79.5742 41.9196 73.4854 49.0263 67.4187 56.133C67.154 56.441 66.9113 56.661 66.448 56.639C64.3302 56.617 62.2123 56.617 60.0724 56.617C59.9621 56.617 59.8518 56.595 59.543 56.551C69.0733 45.99 78.4933 35.561 88.0015 25Z" fill="white"/>
<path d="M90.6945 56.5777C87.8707 56.5777 85.091 56.5777 82.3334 56.5777C82.0908 56.2697 82.179 55.9397 82.179 55.6096C82.179 53.4754 82.2672 51.3192 82.1569 49.185C82.0246 46.9188 83.9218 45.2467 85.7749 44.9826C87.6722 44.7186 89.5032 45.5327 90.4298 47.1388C90.6283 47.4909 90.7827 47.8649 90.7827 48.3049C90.7827 50.9232 90.7827 53.5194 90.7827 56.1377C90.7607 56.2477 90.7166 56.3577 90.6945 56.5777Z" fill="white"/>
<path d="M79.0371 119.781C78.894 119.027 78.9144 100.14 79.0576 99.4464C81.4498 99.4464 83.8625 99.4464 86.2957 99.4464C86.4184 100.323 86.3366 101.18 86.357 102.016C86.6024 102.139 86.6433 101.935 86.7455 101.833C88.6675 99.6708 91.0802 98.8346 93.9427 98.9569C96.3145 99.0589 98.1752 99.9359 99.402 102.037C99.4429 102.098 99.5042 102.139 99.586 102.241C99.9745 101.874 100.363 101.527 100.751 101.16C102.346 99.63 104.248 98.9365 106.456 98.9569C107.928 98.9773 109.36 99.1405 110.648 99.9359C112.283 100.956 113.081 102.506 113.428 104.321C113.612 105.219 113.674 106.136 113.674 107.054C113.674 111.011 113.674 114.947 113.674 118.904C113.674 119.19 113.715 119.455 113.572 119.781C111.016 119.781 108.419 119.781 105.822 119.781C105.679 119.414 105.74 119.047 105.74 118.7C105.74 115.192 105.74 111.664 105.74 108.156C105.74 107.503 105.638 106.891 105.311 106.32C104.187 104.484 101.692 104.994 100.874 106.503C100.424 107.36 100.281 108.298 100.281 109.237C100.281 112.398 100.281 115.559 100.281 118.721C100.281 119.047 100.281 119.373 100.281 119.781C97.6436 119.781 95.0673 119.781 92.491 119.781C92.2866 119.496 92.3683 119.21 92.3683 118.925C92.3683 115.457 92.3683 111.99 92.3479 108.523C92.3479 108.115 92.307 107.707 92.2661 107.299C92.1843 106.32 91.714 105.606 90.7735 105.259C89.8534 104.933 88.9538 105.076 88.1768 105.688C87.5429 106.177 87.2158 106.85 87.0727 107.625C86.9704 108.237 86.9091 108.829 86.9091 109.441C86.9091 112.684 86.9091 115.906 86.9091 119.149C86.9091 119.333 86.9295 119.516 86.8069 119.741C84.251 119.781 81.6543 119.781 79.0371 119.781Z" fill="#F5F5F5"/>
<path d="M132.363 114.999C131.668 115.794 131.054 116.468 130.298 116.998C127.742 118.813 124.941 119.058 122.058 118.018C119.768 117.202 118.705 115.305 118.316 113C118.173 112.144 118.132 111.287 118.132 110.41C118.153 106.555 118.132 102.721 118.132 98.8657C118.132 98.519 118.091 98.1518 118.193 97.7235C120.77 97.7235 123.346 97.7235 125.943 97.7235C126.168 97.9887 126.086 98.315 126.086 98.6006C126.086 101.884 126.086 105.168 126.086 108.452C126.086 108.901 126.106 109.37 126.147 109.818C126.27 111.226 126.945 112.062 128.131 112.286C129.521 112.531 130.748 111.96 131.32 110.757C131.606 110.165 131.75 109.512 131.79 108.839C131.893 106.902 131.811 104.964 131.831 103.027C131.852 101.517 131.831 100.028 131.831 98.519C131.831 98.2742 131.79 98.0091 131.954 97.7031C134.51 97.7031 137.086 97.7031 139.724 97.7031C139.724 104.475 139.724 111.226 139.724 118.038C137.311 118.038 134.919 118.038 132.424 118.038C132.322 117.1 132.465 116.1 132.363 114.999Z" fill="#F5F5F5"/>
<path d="M75.3966 111.619C70.1214 111.619 64.9688 111.619 59.7753 111.619C59.9798 113.353 60.5728 114.76 62.2494 115.332C64.2327 116.025 65.9094 115.393 67.2179 113.741C69.7738 113.965 72.3091 114.21 74.8241 114.434C74.9263 114.76 74.7219 114.944 74.6196 115.107C73.0043 117.657 70.8165 119.39 67.77 119.921C65.1119 120.369 62.4334 120.431 59.7753 119.982C54.9704 119.166 52.5577 115.372 51.9443 112.089C51.5762 110.171 51.5967 108.234 52.1487 106.337C53.1711 102.829 55.4815 100.524 58.9779 99.5245C62.2698 98.5863 65.6231 98.6679 68.8741 99.7081C72.3909 100.85 74.3743 103.441 75.0899 107.01C75.2739 107.907 75.3966 108.825 75.417 109.743C75.3966 110.334 75.3966 110.906 75.3966 111.619Z" fill="#F5F5F5"/>
<path d="M49.3073 112.771C49.3073 115.178 49.3073 117.442 49.3073 119.767C41.8852 119.767 34.463 119.767 27 119.767C27 110.426 27 101.105 27 91.7227C29.9034 91.7227 32.8069 91.7227 35.7716 91.7227C35.7716 98.7185 35.7716 105.694 35.7716 112.751C40.3108 112.771 44.7477 112.771 49.3073 112.771Z" fill="#F5F5F5"/>
<path d="M143.116 114.093C145.733 113.848 148.289 113.603 150.784 113.379C150.906 113.501 150.947 113.522 150.968 113.562C151.847 116.153 154.464 116.214 156.304 115.602C156.488 115.541 156.672 115.418 156.836 115.296C157.306 114.97 157.592 114.541 157.552 113.95C157.49 113.297 157.081 112.951 156.529 112.726C155.854 112.461 155.159 112.339 154.464 112.196C152.481 111.829 150.497 111.502 148.555 110.972C145.713 110.197 143.852 107.892 143.934 105.159C143.995 102.956 145.12 101.366 146.981 100.264C148.228 99.5299 149.598 99.1832 150.988 99.0812C153.544 98.8772 156.1 98.7752 158.615 99.3259C161.314 99.897 163.052 101.61 164.013 104.139C164.033 104.201 164.013 104.282 164.013 104.486C161.58 104.731 159.126 104.976 156.713 105.2C155.691 103.385 154.096 102.752 152.215 103.303C151.908 103.405 151.642 103.528 151.418 103.752C150.722 104.425 150.865 105.343 151.724 105.771C152.522 106.159 153.38 106.24 154.239 106.363C156.038 106.607 157.838 106.791 159.596 107.28C161.396 107.77 162.99 108.606 163.972 110.258C165.608 112.951 164.708 116.52 161.968 118.417C160.496 119.436 158.84 119.926 157.102 120.13C154.403 120.436 151.683 120.395 149.025 119.844C146.285 119.294 144.282 117.784 143.3 115.092C143.239 114.909 143.178 114.705 143.137 114.501C143.116 114.419 143.137 114.317 143.116 114.093Z" fill="#F5F5F5"/>
<path d="M129.357 87.0469C128.662 87.2304 128.008 87.3732 127.374 87.4344C127.313 87.3528 127.231 87.312 127.21 87.2508C126.577 86.1087 125.881 85.7619 124.573 85.9047C123.51 86.0271 122.651 86.7613 122.365 87.8627C122.119 88.8009 122.14 89.7392 122.406 90.657C122.855 92.2479 124.287 93.0025 125.963 92.5334C126.454 92.3907 126.924 92.1867 127.333 91.84C127.415 91.4728 127.374 91.1057 127.333 90.657C126.577 90.657 125.881 90.657 125.145 90.657C124.982 90.0451 125.064 89.4944 125.084 88.8825C126.577 88.8621 127.987 88.8417 129.357 88.9029C129.582 89.1273 129.521 89.3312 129.521 89.5352C129.521 90.3714 129.46 91.2281 129.541 92.0643C129.603 92.819 129.316 93.2473 128.683 93.594C127.21 94.3895 125.657 94.7158 124.021 94.4507C121.363 94.0223 119.686 91.5136 120.034 88.6378C120.259 86.8429 120.974 85.3336 122.712 84.5585C124.348 83.8243 126.045 83.8447 127.66 84.6605C128.601 85.1092 129.132 85.9251 129.357 87.0469Z" fill="#F5F5F5"/>
<path d="M145.303 97.0595C145.303 93.6942 145.303 90.39 145.303 87.045C145.896 86.9023 146.468 86.943 147.02 87.0042C147.245 87.2286 147.102 87.4937 147.204 87.6977C147.266 87.6773 147.347 87.6773 147.388 87.6365C148.942 86.0252 151.58 86.8003 152.234 89.0438C152.582 90.2472 152.561 91.4506 152.071 92.6336C151.294 94.5304 148.942 95.0811 147.593 93.8165C147.531 93.7757 147.47 93.7349 147.347 93.6534C147.204 94.7955 147.388 95.8969 147.245 97.0187C146.591 97.1411 145.998 97.0799 145.303 97.0595Z" fill="#F5F5F5"/>
<path d="M157.244 94.494C154.914 94.494 153.441 92.9847 153.421 90.6392C153.421 88.416 155.016 86.8047 157.224 86.8047C159.432 86.8047 161.048 88.3956 161.068 90.6188C161.088 92.8623 159.473 94.494 157.244 94.494Z" fill="#F5F5F5"/>
<path d="M141.663 94.2867C141.479 94.0624 141.622 93.7972 141.418 93.5729C140.722 94.1236 139.966 94.5519 139.005 94.4907C137.758 94.4295 136.878 93.7768 136.756 92.5327C136.551 90.7174 136.715 88.8818 136.674 87.0461C137.39 86.8829 138.003 86.9441 138.637 87.0053C138.76 87.5968 138.698 88.1271 138.698 88.6574C138.719 89.5956 138.698 90.5338 138.719 91.4721C138.739 92.5123 139.046 92.8794 139.802 92.8998C140.661 92.9202 141.193 92.4103 141.274 91.4925C141.397 90.2483 141.295 89.0041 141.336 87.76C141.336 87.5152 141.274 87.2501 141.458 86.9849C142.031 86.9849 142.644 86.9849 143.319 86.9849C143.319 89.4121 143.319 91.7984 143.319 94.2459C142.767 94.3887 142.195 94.3683 141.663 94.2867Z" fill="#F5F5F5"/>
<path d="M133.099 94.266C132.506 94.368 131.913 94.3476 131.259 94.266C131.259 91.8389 131.259 89.4525 131.259 87.005C131.852 86.9234 132.404 86.9438 132.915 86.9846C133.16 87.1886 133.017 87.4537 133.14 87.7189C133.508 87.3109 133.856 86.9234 134.408 86.8214C134.96 86.7195 135.45 86.903 135.962 87.1886C135.9 87.8004 135.594 88.29 135.471 88.7795C135.266 88.861 135.144 88.8406 135.021 88.7795C134.162 88.3715 133.528 88.8814 133.365 89.7585C133.16 90.9007 133.263 92.0428 133.222 93.185C133.201 93.5317 133.283 93.8989 133.099 94.266Z" fill="#F5F5F5"/>
<path d="M86.7262 126.783C87.5441 127.212 87.8099 127.885 87.6054 128.68C87.4214 129.476 86.8284 129.904 86.0106 130.026C85.2541 130.149 84.4975 130.108 83.6797 130.047C83.6797 128.109 83.6797 126.192 83.6797 124.214C84.5998 124.152 85.479 124.091 86.3582 124.275C87.3396 124.499 87.6872 125.498 87.1147 126.314C87.0125 126.457 86.8898 126.579 86.7262 126.783Z" fill="#F5F5F5"/>
<path d="M53.1712 127.816C53.0485 128.55 53.2121 129.285 53.0485 129.958C52.8031 130.141 52.5782 130.1 52.292 130.019C52.292 128.122 52.292 126.205 52.292 124.226C53.1712 124.145 54.0095 124.084 54.8274 124.308C56.0133 124.634 56.3609 126.184 55.4612 127.082C55.2772 127.265 55.0114 127.327 54.8683 127.592C55.4817 128.367 56.0951 129.142 56.7289 129.917C56.1155 130.243 55.8702 130.202 55.4817 129.733C55.0523 129.203 54.6434 128.632 54.214 128.102C53.8868 127.694 53.8664 127.694 53.1712 127.816Z" fill="#F5F5F5"/>
<path d="M101.671 124.229C102.448 124.127 103.163 124.127 103.859 124.229C104.554 124.31 105.085 124.637 105.269 125.33C105.453 126.044 105.29 126.697 104.697 127.186C104.554 127.288 104.411 127.39 104.206 127.533C104.861 128.349 105.474 129.144 106.108 129.94C105.331 130.205 105.208 130.164 104.779 129.634C104.288 129.022 103.797 128.39 103.327 127.798C103.041 127.717 102.795 127.696 102.53 127.839C102.366 128.553 102.591 129.307 102.386 130.001C102.141 130.123 101.916 130.123 101.65 129.981C101.671 128.104 101.671 126.207 101.671 124.229Z" fill="#F5F5F5"/>
<path d="M122.894 130.044C121.749 130.044 120.604 130.044 119.418 130.044C119.418 128.086 119.418 126.169 119.418 124.211C120.604 124.211 121.769 124.211 122.914 124.211C123.119 124.395 123.078 124.578 123.017 124.864C122.137 124.986 121.217 124.843 120.297 124.945C120.134 125.394 120.236 125.843 120.236 126.332C121.095 126.536 121.974 126.312 122.792 126.475C122.976 126.72 122.955 126.924 122.73 127.189C121.974 127.189 121.156 127.189 120.297 127.189C120.154 127.882 120.236 128.535 120.236 129.269C121.135 129.453 122.056 129.249 122.955 129.392C123.017 129.738 123.017 129.738 122.894 130.044Z" fill="#F5F5F5"/>
<path d="M113.1 127.088C112.916 126.231 112.671 126.17 110.912 126.537C110.769 126.456 110.789 126.333 110.789 126.211C110.789 126.088 110.769 125.946 110.892 125.803C111.526 125.538 112.241 125.558 112.936 125.68C113.488 125.782 113.836 126.15 113.918 126.721C114.04 127.802 113.979 128.903 113.959 129.943C113.529 130.229 113.243 130.066 113.018 129.76C112.63 129.984 112.282 130.168 111.853 130.147C111.117 130.127 110.605 129.76 110.462 129.107C110.299 128.352 110.626 127.761 111.341 127.475C111.628 127.353 111.934 127.333 112.221 127.271C112.507 127.21 112.793 127.251 113.1 127.088Z" fill="#F5F5F5"/>
<path d="M130.192 126.532C130.028 126.307 130.089 126.104 130.11 125.879C130.171 125.838 130.212 125.777 130.273 125.757C130.907 125.512 131.582 125.532 132.236 125.655C132.809 125.757 133.177 126.144 133.238 126.756C133.34 127.817 133.279 128.877 133.279 129.918C132.829 130.203 132.563 130.06 132.318 129.734C131.909 129.979 131.5 130.162 131.009 130.122C130.314 130.06 129.864 129.673 129.742 129.02C129.619 128.306 129.905 127.735 130.539 127.47C131.112 127.225 131.725 127.246 132.318 127.123C132.359 126.246 132.011 126.144 130.192 126.532Z" fill="#F5F5F5"/>
<path d="M65.1312 126.557C65.1108 126.415 65.0903 126.313 65.0903 126.211C65.0903 126.088 65.0699 125.946 65.1926 125.803C65.8264 125.538 66.5421 125.558 67.2577 125.68C67.8507 125.782 68.1778 126.19 68.2596 126.802C68.3823 127.863 68.3005 128.923 68.3005 129.964C67.8507 130.229 67.5644 130.127 67.3599 129.78C66.9919 129.964 66.6852 130.147 66.3172 130.168C65.4993 130.208 64.9063 129.8 64.7836 129.107C64.6405 128.291 64.9677 127.74 65.7651 127.455C66.2967 127.251 66.8692 127.312 67.4008 127.149C67.2986 126.231 67.0737 126.17 65.1312 126.557Z" fill="#F5F5F5"/>
<path d="M90.7724 127.105C90.5884 126.208 90.4657 126.167 88.5437 126.514C88.5028 126.473 88.4415 126.453 88.4415 126.412C88.4211 126.228 88.4415 126.065 88.4415 125.902C88.5233 125.841 88.5846 125.78 88.646 125.759C89.2389 125.555 89.8523 125.555 90.4657 125.637C91.1405 125.718 91.5698 126.106 91.6107 126.779C91.6721 127.84 91.6312 128.9 91.6312 129.961C91.2427 130.144 90.9564 130.124 90.7315 129.757C90.3226 129.961 89.9341 130.185 89.4434 130.144C88.7278 130.104 88.2166 129.696 88.0939 129.023C87.9712 128.35 88.2779 127.758 88.9322 127.473C89.5252 127.228 90.1795 127.289 90.7724 127.105Z" fill="#F5F5F5"/>
<path d="M95.0661 126.533C94.9025 126.309 94.9639 126.105 94.9639 125.901C95.0252 125.86 95.0866 125.799 95.1479 125.779C95.7409 125.575 96.3543 125.575 96.9677 125.656C97.622 125.758 98.0309 126.126 98.0718 126.737C98.1331 127.574 98.1127 128.41 98.1127 129.246C98.1127 129.491 98.1331 129.756 98.0513 129.98C97.5197 130.082 97.5197 130.082 97.213 129.756C96.845 129.96 96.4769 130.164 96.0067 130.164C95.2297 130.144 94.739 129.776 94.5958 129.042C94.4527 128.328 94.7594 127.757 95.4751 127.472C95.7613 127.37 96.0476 127.288 96.3747 127.268C96.661 127.247 96.9268 127.186 97.1926 127.145C97.2335 126.268 96.8859 126.166 95.0661 126.533Z" fill="#F5F5F5"/>
<path d="M140.354 129.062C140.476 129.348 140.456 129.552 140.354 129.776C140.108 129.98 139.802 130.041 139.495 130.102C137.512 130.49 136.203 129.001 136.796 127.063C137.144 125.941 138.084 125.391 139.229 125.635C139.802 125.758 140.17 126.105 140.374 126.655C140.517 127.043 140.579 127.43 140.476 127.94C139.536 128.083 138.534 127.94 137.573 128.022C137.634 129.429 138.432 129.715 140.354 129.062Z" fill="#F5F5F5"/>
<path d="M109.828 129.102C109.951 129.326 109.951 129.53 109.849 129.795C109.174 130.203 108.417 130.264 107.661 130.081C106.966 129.918 106.495 129.489 106.291 128.775C106.148 128.225 106.127 127.674 106.291 127.123C106.618 125.981 107.538 125.43 108.683 125.655C109.624 125.838 110.114 126.695 109.951 127.939C108.99 128.123 108.008 127.878 107.047 128.061C107.17 129.428 107.804 129.652 109.828 129.102Z" fill="#F5F5F5"/>
<path d="M56.792 127.881C56.792 126.371 57.6303 125.494 59.0002 125.617C60.043 125.698 60.6768 126.392 60.7586 127.656C60.8609 129.288 60.0226 130.226 58.6322 130.165C57.4872 130.084 56.792 129.247 56.792 127.881Z" fill="#F5F5F5"/>
<path d="M80.368 127.783C80.4293 129.619 79.1003 130.638 77.5668 130.006C77.3623 129.925 77.1579 129.802 76.9943 129.639C76.2378 128.844 76.1969 127.069 76.9125 126.253C77.4646 125.621 78.1802 125.519 78.9367 125.682C79.7137 125.845 80.1226 126.416 80.3067 127.151C80.3475 127.355 80.3475 127.599 80.368 127.783Z" fill="#F5F5F5"/>
<path d="M123.593 129.733C123.47 129.488 123.532 129.243 123.552 128.998C123.9 128.958 124.104 129.223 124.37 129.284C124.595 129.345 124.799 129.447 125.045 129.427C125.433 129.406 125.883 129.386 125.924 128.896C125.965 128.427 125.535 128.366 125.188 128.264C124.942 128.203 124.677 128.162 124.452 128.081C123.879 127.897 123.572 127.489 123.552 126.959C123.532 126.428 123.859 125.919 124.39 125.715C125.126 125.429 125.842 125.551 126.496 125.817C126.66 126.123 126.639 126.367 126.537 126.612C124.677 126.102 124.431 126.163 124.472 127.102C124.779 127.469 125.249 127.428 125.658 127.55C126.435 127.775 126.762 128.101 126.762 128.713C126.762 129.366 126.333 129.875 125.617 130.059C125.004 130.263 124.268 130.141 123.593 129.733Z" fill="#F5F5F5"/>
<path d="M61.2668 129.796C61.1441 129.511 61.1237 129.286 61.2668 129.021C61.5735 128.98 61.778 129.225 62.0233 129.307C62.4118 129.429 62.8003 129.531 63.2093 129.327C63.4137 129.225 63.5569 129.123 63.5569 128.878C63.5569 128.654 63.4342 128.511 63.2297 128.409C62.923 128.246 62.5959 128.267 62.2687 128.165C61.4713 127.92 61.1646 127.532 61.2259 126.798C61.2873 126.186 61.7575 125.717 62.4527 125.635C63.0252 125.554 63.5569 125.635 64.1703 125.921C64.2929 126.145 64.2929 126.39 64.1907 126.635C63.9044 126.696 63.7 126.492 63.4751 126.431C63.2297 126.349 62.9843 126.288 62.7185 126.329C62.4118 126.39 62.1051 126.492 62.0847 126.88C62.0642 127.247 62.3505 127.349 62.6163 127.43C62.9026 127.512 63.2093 127.553 63.516 127.634C64.1498 127.838 64.3952 128.144 64.4156 128.715C64.4361 129.307 64.1907 129.755 63.6386 129.98C62.7799 130.306 62.0029 130.204 61.2668 129.796Z" fill="#F5F5F5"/>
<path d="M136.35 125.722C136.514 125.926 136.473 126.13 136.391 126.333C136.023 126.537 135.594 126.333 135.164 126.517C135.123 127.414 135.062 128.312 135.226 129.169C135.573 129.556 135.962 129.454 136.33 129.393C136.514 129.597 136.493 129.78 136.411 129.984C135.123 130.474 134.346 129.984 134.306 128.659C134.285 127.965 134.306 127.292 134.306 126.619C133.651 126.17 133.651 125.987 134.265 125.538C134.367 125.212 134.224 124.865 134.387 124.559C134.612 124.416 134.817 124.437 135.042 124.539C135.266 124.865 135.103 125.232 135.205 125.599C135.532 125.783 135.941 125.579 136.35 125.722Z" fill="#F5F5F5"/>
<path d="M127.452 126.593C126.736 126.165 126.736 125.961 127.452 125.471C127.452 125.349 127.452 125.186 127.452 125.043C127.452 124.9 127.452 124.737 127.452 124.615C127.656 124.37 127.881 124.431 128.106 124.492C128.392 124.798 128.127 125.247 128.351 125.594C128.699 125.777 129.108 125.594 129.476 125.736C129.64 125.94 129.64 126.144 129.496 126.369C129.149 126.552 128.74 126.348 128.311 126.552C128.208 127.348 128.229 128.164 128.311 129C128.331 129.285 128.556 129.448 128.842 129.469C129.067 129.489 129.292 129.469 129.537 129.469C129.721 129.836 129.66 130.06 129.19 130.162C128.147 130.366 127.493 129.877 127.452 128.816C127.431 128.041 127.452 127.307 127.452 126.593Z" fill="#F5F5F5"/>
<path d="M76.113 129.452C76.2357 129.635 76.2152 129.819 76.0926 130.023C75.8472 130.186 75.5609 130.186 75.2747 130.166C74.5386 130.145 74.2319 129.86 74.0683 129.146C73.9456 128.615 74.0274 128.085 74.007 127.555C73.9865 127.249 74.007 126.943 74.007 126.657C73.3527 126.127 73.3527 125.984 73.9865 125.556C73.9865 125.393 74.007 125.23 74.007 125.046C74.007 124.903 73.9865 124.74 74.0888 124.577C74.2728 124.414 74.4977 124.434 74.7226 124.536C74.9475 124.863 74.7226 125.25 74.9066 125.597C75.2542 125.801 75.7041 125.597 76.0926 125.76C76.2561 125.944 76.2561 126.148 76.113 126.372C75.745 126.535 75.2951 126.351 74.8453 126.555C74.8453 127.29 74.8249 128.065 74.8453 128.819C74.8658 129.289 75.152 129.492 75.6018 129.492C75.745 129.452 75.929 129.329 76.113 129.452Z" fill="#F5F5F5"/>
<path d="M91.8586 131.589C91.736 131.365 91.736 131.161 91.8177 130.977C91.8586 130.957 91.8995 130.896 91.9404 130.896C92.8196 130.937 93.0854 130.753 93.1059 129.917C93.1468 128.795 93.1059 127.673 93.1059 126.633C92.9014 126.307 92.5743 126.531 92.3698 126.307C92.2676 126.143 92.2676 125.96 92.4311 125.715C92.8605 125.634 93.3308 125.634 93.8215 125.735C93.9851 126.164 93.9033 126.613 93.9237 127.041C93.9442 127.979 93.9442 128.917 93.9237 129.876C93.8828 131.304 93.3512 131.752 91.8586 131.589Z" fill="#F5F5F5"/>
<path d="M70.0806 126.181C70.5918 125.915 70.9803 125.569 71.5119 125.711C71.6959 125.936 71.6959 126.16 71.5937 126.405C71.4506 126.527 71.287 126.487 71.1438 126.507C70.2851 126.609 70.0806 126.854 70.0602 127.731C70.0397 128.485 70.142 129.24 69.9988 129.974C69.733 130.117 69.5286 130.117 69.2832 129.954C69.2832 128.587 69.2832 127.2 69.2832 125.773C69.6717 125.63 70.0397 125.467 70.0806 126.181Z" fill="#F5F5F5"/>
<path d="M114.961 124.002C115.186 123.859 115.39 123.92 115.656 124.022C115.656 126.001 115.656 127.959 115.656 129.937C115.472 130.162 115.247 130.1 114.961 130.039C114.961 128.02 114.961 126.021 114.961 124.002Z" fill="#F5F5F5"/>
<path d="M72.944 130.018C72.6577 130.1 72.4737 130.12 72.1874 129.937C72.167 128.59 72.1465 127.183 72.2079 125.776C72.3306 125.715 72.3919 125.674 72.4737 125.674C72.6168 125.653 72.7804 125.633 72.9644 125.796C72.944 127.163 72.944 128.57 72.944 130.018Z" fill="#F5F5F5"/>
<path d="M93.0842 124.983C92.9615 124.697 92.9411 124.473 93.0842 124.269C93.3296 124.126 93.5749 124.188 93.7794 124.228C93.9634 124.473 93.943 124.697 93.8407 124.901C93.5954 125.085 93.35 125.003 93.0842 124.983Z" fill="#F5F5F5"/>
<path d="M72.964 124.228C73.1072 124.493 73.0867 124.697 72.9845 124.901C72.7187 125.043 72.4733 125.043 72.228 124.921C72.0849 124.697 72.1257 124.493 72.1871 124.268C72.4324 124.105 72.6778 124.146 72.964 124.228Z" fill="#F5F5F5"/>
<path d="M67.2805 107.707C64.8064 107.707 62.3119 107.707 59.8379 107.707C59.9197 105.321 61.4327 103.669 63.5387 103.669C65.7879 103.628 67.1578 105.117 67.2805 107.707Z" fill="#014DB7"/>
<path d="M150.374 90.6354C150.374 91.1453 150.353 91.5736 150.19 91.9816C149.985 92.4915 149.576 92.7974 149.045 92.879C148.493 92.9402 148.022 92.7158 147.736 92.2467C147.143 91.2677 147.123 90.2071 147.613 89.1873C147.859 88.657 148.37 88.4326 148.963 88.4734C149.535 88.5142 149.924 88.8202 150.169 89.2893C150.353 89.7176 150.394 90.2071 150.374 90.6354Z" fill="#014DB7"/>
<path d="M158.962 90.6353C158.941 91.7979 158.512 92.4914 157.755 92.7361C156.937 93.0013 156.079 92.6138 155.752 91.7979C155.465 91.1248 155.465 90.411 155.67 89.6971C155.895 88.9221 156.467 88.4937 157.224 88.4734C157.98 88.453 158.532 88.8813 158.819 89.6563C158.941 90.0235 158.941 90.3702 158.962 90.6353Z" fill="#014DB7"/>
<path d="M84.5356 129.266C84.4538 128.593 84.4538 127.96 84.556 127.287C85.0263 127.185 85.4761 127.185 85.9259 127.287C86.5393 127.41 86.7642 127.695 86.7438 128.287C86.7438 128.838 86.4575 129.184 85.885 129.286C85.4557 129.347 85.0263 129.368 84.5356 129.266Z" fill="#014DB7"/>
<path d="M84.5386 126.512C84.4569 125.982 84.4773 125.513 84.5182 124.983C84.9271 124.86 85.3361 124.922 85.7246 124.922C86.1539 124.942 86.4606 125.146 86.5015 125.595C86.5424 126.003 86.2562 126.39 85.8268 126.492C85.4383 126.594 85.0294 126.553 84.5386 126.512Z" fill="#014DB7"/>
<path d="M53.1277 124.942C53.8433 124.942 54.518 124.738 54.9679 125.37C55.2337 125.737 55.1519 126.165 54.9065 126.512C54.4976 127.124 53.8638 127.022 53.2504 126.981C53.0254 126.675 53.1277 126.328 53.1277 126.023C53.1072 125.696 53.1277 125.37 53.1277 124.942Z" fill="#014DB7"/>
<path d="M102.547 124.947C103.242 124.947 103.917 124.743 104.347 125.416C104.592 125.804 104.51 126.232 104.265 126.558C103.835 127.129 103.202 127.027 102.568 127.007C102.445 126.314 102.486 125.661 102.547 124.947Z" fill="#014DB7"/>
<path d="M113.102 128.922C112.836 129.228 112.529 129.391 112.202 129.432C111.814 129.493 111.425 129.411 111.282 128.962C111.139 128.555 111.364 128.187 111.834 128.024C111.998 127.963 112.182 127.963 112.345 127.902C112.57 127.841 112.795 127.82 113.04 127.861C113.204 128.208 113.122 128.555 113.102 128.922Z" fill="#014DB7"/>
<path d="M132.361 127.882C132.484 128.27 132.443 128.616 132.402 128.943C132.136 129.228 131.83 129.412 131.462 129.453C131.012 129.514 130.644 129.289 130.583 128.922C130.501 128.494 130.685 128.188 131.094 128.045C131.196 128.005 131.278 127.984 131.38 127.984C131.707 127.923 131.993 127.821 132.361 127.882Z" fill="#014DB7"/>
<path d="M67.3812 127.901C67.4835 128.941 67.2995 129.288 66.5634 129.451C66.1136 129.553 65.6842 129.329 65.582 128.962C65.4797 128.534 65.6637 128.166 66.1545 128.044C66.5225 127.922 66.9314 127.799 67.3812 127.901Z" fill="#014DB7"/>
<path d="M90.7499 127.858C90.8726 128.246 90.8113 128.572 90.7908 128.878C90.5455 129.184 90.2183 129.347 89.8707 129.408C89.4413 129.51 89.0528 129.286 88.9506 128.919C88.8484 128.47 89.0324 128.164 89.4413 128.021C89.8503 127.899 90.2796 127.817 90.7499 127.858Z" fill="#014DB7"/>
<path d="M97.2115 127.859C97.3751 128.205 97.2729 128.532 97.3138 128.858C97.0275 129.205 96.6799 129.409 96.271 129.429C95.9029 129.449 95.5349 129.327 95.4736 128.878C95.4122 128.47 95.5554 128.185 95.9643 128.042C96.3528 127.92 96.7617 127.838 97.2115 127.859Z" fill="#014DB7"/>
<path d="M139.704 127.308C138.988 127.369 138.293 127.369 137.598 127.308C137.741 126.512 138.068 126.227 138.743 126.247C139.397 126.268 139.581 126.471 139.704 127.308Z" fill="#014DB7"/>
<path d="M109.196 127.286C108.828 127.409 108.501 127.348 108.153 127.368C107.805 127.388 107.437 127.368 107.09 127.368C107.192 126.593 107.458 126.307 108.112 126.267C108.787 126.226 109.012 126.43 109.196 127.286Z" fill="#014DB7"/>
<path d="M57.629 127.92C57.629 127.859 57.629 127.839 57.629 127.818C57.6494 126.88 58.0788 126.33 58.7944 126.309C59.5101 126.289 59.919 126.86 59.919 127.818C59.919 128.063 59.8985 128.328 59.8372 128.573C59.7145 129.083 59.3056 129.43 58.8149 129.45C58.3241 129.471 57.9152 129.165 57.7516 128.634C57.6699 128.39 57.6085 128.145 57.629 127.92Z" fill="#014DB7"/>
<path d="M79.5049 127.88C79.5049 128.859 79.1164 129.41 78.4212 129.43C77.6852 129.45 77.2354 128.879 77.2354 127.88C77.2354 126.86 77.6443 126.289 78.3803 126.289C79.1164 126.289 79.5049 126.86 79.5049 127.88Z" fill="#014DB7"/>
</g>
<defs>
<filter id="filter0_d_306_353" x="0" y="-11" width="191" height="191" filterUnits="userSpaceOnUse" color-interpolation-filters="sRGB">
<feFlood flood-opacity="0" result="BackgroundImageFix"/>
<feColorMatrix in="SourceAlpha" type="matrix" values="0 0 0 0 0 0 0 0 0 0 0 0 0 0 0 0 0 0 127 0" result="hardAlpha"/>
<feOffset dy="1"/>
<feGaussianBlur stdDeviation="6"/>
<feComposite in2="hardAlpha" operator="out"/>
<feColorMatrix type="matrix" values="0 0 0 0 0 0 0 0 0 0 0 0 0 0 0 0 0 0 0.1 0"/>
<feBlend mode="normal" in2="BackgroundImageFix" result="effect1_dropShadow_306_353"/>
<feBlend mode="normal" in="SourceGraphic" in2="effect1_dropShadow_306_353" result="shape"/>
</filter>
</defs>
</svg>
