<svg width="30" height="30" viewBox="0 0 30 30" fill="none" xmlns="http://www.w3.org/2000/svg">
<g clip-path="url(#clip0_360_259)">
<path d="M14.6424 0C9.58766 0 5.49023 4.09743 5.49023 9.15217C5.49023 18.3043 14.6424 29.287 14.6424 29.287C14.6424 29.287 23.7946 18.3043 23.7946 9.15217C23.7946 4.09743 19.6972 0 14.6424 0ZM14.6424 14.7579C11.5462 14.7579 9.0367 12.2484 9.0367 9.15217C9.0367 6.05599 11.5462 3.54647 14.6424 3.54647C17.7386 3.54647 20.2481 6.05599 20.2481 9.15217C20.2481 12.2484 17.7386 14.7579 14.6424 14.7579ZM11.0959 9.15217C11.0959 7.19361 12.6838 5.60571 14.6424 5.60571C16.601 5.60571 18.1889 7.19361 18.1889 9.15217C18.1889 11.1107 16.601 12.6986 14.6424 12.6986C12.6838 12.6986 11.0959 11.1107 11.0959 9.15217Z" fill="#0155CB"/>
</g>
<defs>
<clipPath id="clip0_360_259">
<rect width="29.287" height="29.287" fill="white"/>
</clipPath>
</defs>
</svg>
